<?xml version="1.0" encoding="UTF-8"?>
<svg xmlns="http://www.w3.org/2000/svg" width="1280" height="720" viewBox="0 0 1280 720" role="img" aria-labelledby="title desc">
  <title id="title">okturan plugin marketplace capability map</title>
  <desc id="desc">Three installable Claude Code plugins and four reusable agent skills, generated from the repository marketplace and plugin manifests.</desc>
  <defs>
    <linearGradient id="background" x1="0" y1="0" x2="1" y2="1">
      <stop offset="0" stop-color="#020617" />
      <stop offset="0.52" stop-color="#0b1120" />
      <stop offset="1" stop-color="#111827" />
    </linearGradient>
    <radialGradient id="glow" cx="50%" cy="0" r="80%">
      <stop offset="0" stop-color="#2563eb" stop-opacity="0.28" />
      <stop offset="1" stop-color="#020617" stop-opacity="0" />
    </radialGradient>
    <style>
      text { font-family: -apple-system, BlinkMacSystemFont, "Segoe UI", sans-serif; }
      .eyebrow { fill: #93c5fd; font-size: 15px; font-weight: 700; letter-spacing: 2.2px; }
      .hero { fill: #f8fafc; font-size: 42px; font-weight: 760; }
      .sub { fill: #94a3b8; font-size: 18px; }
      .card-title { fill: #f8fafc; font-size: 24px; font-weight: 720; text-transform: capitalize; }
      .version { fill: #64748b; font-size: 12px; font-weight: 650; }
      .label { font-size: 11px; font-weight: 760; letter-spacing: 1.2px; }
      .body { fill: #cbd5e1; font-size: 16px; }
      .metric-value { font-size: 22px; font-weight: 760; }
      .metric-label { fill: #64748b; font-size: 9px; font-weight: 700; letter-spacing: 0.8px; }
      .footer-title { fill: #e2e8f0; font-size: 15px; font-weight: 700; }
      .footer-body { fill: #94a3b8; font-size: 14px; }
      .mono { font-family: ui-monospace, SFMono-Regular, Menlo, monospace; }
    </style>
  </defs>
  <rect width="1280" height="720" fill="url(#background)" />
  <rect width="1280" height="720" fill="url(#glow)" />
  <text x="56" y="55" class="eyebrow">okturan-plugins · OWNER-AUTHORED MARKETPLACE</text>
  <text x="56" y="108" class="hero">Small tools with sharp boundaries.</text>
  <text x="56" y="145" class="sub">3 installable plugins · 4 reusable skills · one validated cross-platform contract</text>
  <g transform="translate(56 174)">
    <rect width="548" height="34" rx="17" fill="#172554" stroke="#1d4ed8" />
    <text x="18" y="22" class="footer-body mono" fill="#bfdbfe">npx skills@latest add okturan/claude-plugins</text>
  </g>
  <g transform="translate(620 174)">
    <rect width="604" height="34" rx="17" fill="#1e1b4b" stroke="#6d28d9" />
    <text x="18" y="22" class="footer-body mono" fill="#ddd6fe">/plugin marketplace add okturan/claude-plugins</text>
  </g>
  <g transform="translate(56 226)">
    <rect width="352" height="322" rx="24" fill="#0f172a" stroke="#334155" stroke-width="2" />
    <rect x="1" y="1" width="350" height="7" rx="4" fill="#22d3ee" />
    <circle cx="42" cy="51" r="18" fill="#22d3ee" fill-opacity="0.16" />
    <circle cx="42" cy="51" r="7" fill="#22d3ee" />
    <text x="72" y="48" class="card-title">files organizer</text>
    <text x="72" y="68" class="version">v0.1.0</text>
    <text x="24" y="104" class="label" fill="#22d3ee">MAP · DEDUPLICATE · REORGANIZE</text>
    <text x="24" y="140" class="body">Disk and folder inventory</text>
    <text x="24" y="166" class="body">Duplicate and orphan detection</text>
    <text x="24" y="192" class="body">Interactive HTML file map</text>
    <g transform="translate(24 232)">
    <rect width="92" height="54" rx="12" fill="#111827" stroke="#334155" />
    <text x="46" y="23" text-anchor="middle" class="metric-value" fill="#22d3ee">3</text>
    <text x="46" y="41" text-anchor="middle" class="metric-label">COMMANDS</text>
  </g>
    <g transform="translate(130 232)">
    <rect width="92" height="54" rx="12" fill="#111827" stroke="#334155" />
    <text x="46" y="23" text-anchor="middle" class="metric-value" fill="#22d3ee">3</text>
    <text x="46" y="41" text-anchor="middle" class="metric-label">AGENTS</text>
  </g>
    <g transform="translate(236 232)">
    <rect width="92" height="54" rx="12" fill="#111827" stroke="#334155" />
    <text x="46" y="23" text-anchor="middle" class="metric-value" fill="#22d3ee">2</text>
    <text x="46" y="41" text-anchor="middle" class="metric-label">SKILLS</text>
  </g>
  </g>
<g transform="translate(445 226)">
    <rect width="352" height="322" rx="24" fill="#0f172a" stroke="#334155" stroke-width="2" />
    <rect x="1" y="1" width="350" height="7" rx="4" fill="#a78bfa" />
    <circle cx="42" cy="51" r="18" fill="#a78bfa" fill-opacity="0.16" />
    <circle cx="42" cy="51" r="7" fill="#a78bfa" />
    <text x="72" y="48" class="card-title">project health</text>
    <text x="72" y="68" class="version">v0.1.0</text>
    <text x="24" y="104" class="label" fill="#a78bfa">SCORE · DIAGNOSE · PRIORITIZE</text>
    <text x="24" y="140" class="body">Nine-category repository audit</text>
    <text x="24" y="166" class="body">Weighted score out of 100</text>
    <text x="24" y="192" class="body">Actionable health report</text>
    <g transform="translate(24 232)">
    <rect width="92" height="54" rx="12" fill="#111827" stroke="#334155" />
    <text x="46" y="23" text-anchor="middle" class="metric-value" fill="#a78bfa">1</text>
    <text x="46" y="41" text-anchor="middle" class="metric-label">COMMANDS</text>
  </g>
    <g transform="translate(130 232)">
    <rect width="92" height="54" rx="12" fill="#111827" stroke="#334155" />
    <text x="46" y="23" text-anchor="middle" class="metric-value" fill="#a78bfa">0</text>
    <text x="46" y="41" text-anchor="middle" class="metric-label">AGENTS</text>
  </g>
    <g transform="translate(236 232)">
    <rect width="92" height="54" rx="12" fill="#111827" stroke="#334155" />
    <text x="46" y="23" text-anchor="middle" class="metric-value" fill="#a78bfa">1</text>
    <text x="46" y="41" text-anchor="middle" class="metric-label">SKILLS</text>
  </g>
  </g>
<g transform="translate(834 226)">
    <rect width="352" height="322" rx="24" fill="#0f172a" stroke="#334155" stroke-width="2" />
    <rect x="1" y="1" width="350" height="7" rx="4" fill="#fb7185" />
    <circle cx="42" cy="51" r="18" fill="#fb7185" fill-opacity="0.16" />
    <circle cx="42" cy="51" r="7" fill="#fb7185" />
    <text x="72" y="48" class="card-title">human writing</text>
    <text x="72" y="68" class="version">v0.1.0</text>
    <text x="24" y="104" class="label" fill="#fb7185">DETECT · REWRITE · KEEP VOICE</text>
    <text x="24" y="140" class="body">AI-tell detection catalog</text>
    <text x="24" y="166" class="body">Two-pass /humanize command</text>
    <text x="24" y="192" class="body">Specifics without invented detail</text>
    <g transform="translate(24 232)">
    <rect width="92" height="54" rx="12" fill="#111827" stroke="#334155" />
    <text x="46" y="23" text-anchor="middle" class="metric-value" fill="#fb7185">1</text>
    <text x="46" y="41" text-anchor="middle" class="metric-label">COMMANDS</text>
  </g>
    <g transform="translate(130 232)">
    <rect width="92" height="54" rx="12" fill="#111827" stroke="#334155" />
    <text x="46" y="23" text-anchor="middle" class="metric-value" fill="#fb7185">0</text>
    <text x="46" y="41" text-anchor="middle" class="metric-label">AGENTS</text>
  </g>
    <g transform="translate(236 232)">
    <rect width="92" height="54" rx="12" fill="#111827" stroke="#334155" />
    <text x="46" y="23" text-anchor="middle" class="metric-value" fill="#fb7185">1</text>
    <text x="46" y="41" text-anchor="middle" class="metric-label">SKILLS</text>
  </g>
  </g>
  <g transform="translate(56 581)">
    <rect width="1168" height="91" rx="18" fill="#0b1220" stroke="#1e293b" />
    <text x="24" y="32" class="footer-title">Repository contract</text>
    <text x="24" y="59" class="footer-body">marketplace.json → plugin manifests → skills, commands and agents → macOS + Linux CI</text>
    <text x="772" y="32" class="footer-title">Distribution</text>
    <text x="772" y="59" class="footer-body">skills.sh for reusable skills · Claude Code for full plugins</text>
  </g>
  <text x="56" y="703" fill="#475569" font-size="11">Generated from .claude-plugin/marketplace.json and each plugin manifest; verified by scripts/render-marketplace-proof.mjs --check</text>
</svg>
